<svg width="80" height="18" viewBox="0 0 80 18" fill="none" xmlns="http://www.w3.org/2000/svg">
<g clip-path="url(#clip0_417_158)">
<path d="M1.78445 9.52939C1.78445 9.30579 1.81077 9.05588 1.86338 8.77967C1.916 8.50346 1.94229 8.20093 1.94229 7.87211C1.94229 7.64851 1.84364 7.47751 1.64635 7.35914C1.46221 7.24075 1.25176 7.10923 1.01501 6.96454C0.77825 6.81986 0.561226 6.63572 0.363929 6.41212C0.179787 6.18851 0.0877151 5.86626 0.0877151 5.44537C0.0877151 5.14284 0.166634 4.84033 0.32447 4.53781C0.495461 4.23528 0.738792 3.95907 1.05446 3.70916C1.83049 3.13042 2.63284 2.61088 3.46147 2.15053C4.30328 1.69017 5.13849 1.30215 5.96714 0.986479C6.80893 0.670805 7.63757 0.427474 8.45307 0.256484C9.26856 0.0854949 10.0512 0 10.8009 0C12.0636 0 13.2473 0.236754 14.3522 0.710265C15.4702 1.17062 16.437 1.80854 17.2525 2.62404C18.081 3.42637 18.7321 4.37339 19.2056 5.46509C19.6923 6.54365 19.9356 7.70112 19.9356 8.93751C19.9356 10.1476 19.6791 11.2985 19.1663 12.3902C18.6665 13.4687 17.9889 14.4158 17.1341 15.2312C16.2791 16.0467 15.2729 16.6912 14.1155 17.1647C12.9711 17.6514 11.761 17.8947 10.4852 17.8947C9.23566 17.8947 8.07821 17.6842 7.0128 17.2634C5.9474 16.8425 5.0267 16.2638 4.25066 15.5272C3.47463 14.7775 2.86959 13.8962 2.43554 12.8834C2.00149 11.8575 1.78445 10.7395 1.78445 9.52939ZM10.9193 14.3434C11.4717 14.3434 12.0438 14.2316 12.6357 14.008C13.2276 13.7844 13.7669 13.4622 14.2536 13.0413C14.7534 12.6072 15.1611 12.0811 15.4768 11.4629C15.8056 10.8447 15.97 10.1476 15.97 9.37156C15.97 8.58237 15.8253 7.84581 15.536 7.16184C15.2466 6.47788 14.8455 5.886 14.3325 5.38618C13.8327 4.87321 13.2342 4.47203 12.5371 4.18267C11.8531 3.8933 11.11 3.74861 10.3076 3.74861C8.84765 3.74861 7.72965 4.13005 6.95361 4.89293C6.17758 5.64267 5.78957 6.80012 5.78957 8.36535C5.78957 9.2203 5.91452 10.0161 6.16443 10.7526C6.42749 11.4761 6.78921 12.1074 7.24956 12.6467C7.70991 13.1728 8.24919 13.5871 8.86738 13.8896C9.49873 14.1922 10.1827 14.3434 10.9193 14.3434Z" fill="#4361EE"/>
</g>
<g clip-path="url(#clip1_417_158)">
<path d="M45.6305 10.6395C45.6305 6.13398 42.2116 3.90772 38.7927 3.93422C35.4268 3.96073 32.0874 6.21349 32.0874 10.6395C32.0874 15.1185 35.5063 17.3448 38.8987 17.3448C42.2646 17.3448 45.6305 15.1185 45.6305 10.6395ZM35.7714 10.6395C35.7714 8.33373 37.335 7.1941 38.8987 7.1941C40.4624 7.1941 41.9466 8.36024 41.9466 10.6395C41.9466 12.9718 40.3829 14.1379 38.8192 14.1114C37.282 14.1114 35.7714 12.9453 35.7714 10.6395Z" fill="white"/>
<path d="M53.1668 17.2653L59.4481 4.72932V4.30527H55.4991L53.9884 7.77717L52.4247 11.8586H52.3717L50.8346 7.77717L49.3239 4.30527H45.3485V4.72932L51.6296 17.2653H53.1668Z" fill="white"/>
<path d="M68.2494 15.1185C68.2494 17.3978 70.3697 17.5038 72.3044 17.0798L72.2779 15.0125C71.0587 15.092 71.0852 14.456 71.0852 13.3693V8.7578C71.0852 5.07387 68.2759 3.98724 64.9895 3.98724C63.2668 3.98724 61.5441 4.30528 60.1925 4.94135L60.6695 7.59166C61.7562 6.98209 63.0018 6.82307 64.3535 6.82307C65.6256 6.82307 67.5338 7.0881 67.5338 8.65178V9.52639C66.5797 8.91681 65.2811 8.70479 64.1414 8.70479C61.3056 8.70479 59.0529 10.189 59.1854 13.3163C59.2649 15.7811 61.4381 17.3183 63.8234 17.3183C65.4666 17.3183 67.4808 16.7087 68.2494 15.1185ZM67.4543 12.4947C67.3218 13.8464 65.7846 14.456 64.5655 14.456C63.7174 14.456 62.8958 14.0054 62.8163 13.0778C62.6838 11.8322 63.6379 11.1696 64.804 11.0901C65.7316 11.0901 66.7122 11.3286 67.4543 11.8322V12.4947Z" fill="white"/>
<path d="M73.8634 0C73.7007 0 73.5689 0.131843 73.5689 0.294479V12.2297C73.5689 16.8147 75.9542 17.7953 79.9031 17.0798L79.7706 14.2969C77.9949 14.5885 77.2263 14.1909 77.2263 12.2297V0.294479C77.2263 0.131842 77.0944 0 76.9318 0H73.8634Z" fill="white"/>
</g>
<defs>
<clipPath id="clip0_417_158">
<rect width="20" height="17.8947" fill="white"/>
</clipPath>
<clipPath id="clip1_417_158">
<rect width="48" height="17.3742" fill="white" transform="translate(32)"/>
</clipPath>
</defs>
</svg>
